# xmcd
# 
# Track frame offsets:
#     150
#     17832
#     36682
#     49250
#     63155
#     84807
#     108727
#     118620
#     135987
#     165282
# 
# Disc length: 2477
# 
# Revision: 1
# Processed by: cddbd v1.5.2PL0 Copyright (c) Steve Scherf et al.
# Submitted via: BonkEnc v1.0.5
# 
DISCID=7c09ab0a
DTITLE=甲斐バンド - 誘惑
DYEAR=1978
DGENRE=Rock
TTITLE0=カーテン
TTITLE1=ちんぴら
TTITLE2=悲しい愛奴(サーファー)
TTITLE3=からくり
TTITLE4=翼あるもの
TTITLE5=嵐の季節
TTITLE6=バランタインの日々
TTITLE7=二色の灯
TTITLE8=シネマ・クラブ
TTITLE9=LADY
EXTD=
EXTT0=
EXTT1=
EXTT2=
EXTT3=
EXTT4=
EXTT5=
EXTT6=
EXTT7=
EXTT8=
EXTT9=
PLAYORDER=
